<svg xmlns="http://www.w3.org/2000/svg" viewBox="0 0 2601.34 1467.56"><defs><style>.cls-1{fill:#02ccbd;}.cls-2{fill:none;stroke:#4eaeb2;stroke-miterlimit:10;stroke-width:1.56px;}.cls-3{fill:#4eaeb2;}</style></defs><title>资源 13</title><g id="图层_2" data-name="图层 2"><g id="图层_1-2" data-name="图层 1"><polygon class="cls-1" points="1039.44 30.49 658.32 30.49 1039.44 24.39 1039.44 30.49"/><polygon class="cls-1" points="1039.44 30.49 1033.35 30.49 1047.07 0 1039.44 30.49"/><polygon class="cls-1" points="1039.44 38.11 658.32 38.11 1039.44 44.21 1039.44 38.11"/><polygon class="cls-1" points="1039.44 38.11 1033.35 38.11 1047.07 68.6 1039.44 38.11"/><polygon class="cls-1" points="1561.9 30.49 1943.02 30.49 1561.9 24.39 1561.9 30.49"/><polygon class="cls-1" points="1561.9 30.49 1568 30.49 1554.28 0 1561.9 30.49"/><polygon class="cls-1" points="1561.9 38.11 1943.02 38.11 1561.9 44.21 1561.9 38.11"/><polygon class="cls-1" points="1561.9 38.11 1568 38.11 1554.28 68.6 1561.9 38.11"/><polyline class="cls-2" points="2592.64 1019.25 2592.64 1414.55 2549.89 1466.78 2331.05 1466.78 2303.41 1435.68 1603.68 1435.68"/><polyline class="cls-2" points="2536.4 1455.1 2334.95 1455.1 2307.3 1424 2235.01 1424"/><line class="cls-2" x1="1959.12" y1="1424" x2="1758.34" y2="1424"/><line class="cls-2" x1="2588.88" y1="1370.43" x2="2588.88" y2="1271.05"/><line class="cls-2" x1="2600.56" y1="1405.48" x2="2600.56" y2="1208.74"/><line class="cls-2" x1="2588.88" y1="1265.3" x2="2588.88" y2="1258.59"/><polygon class="cls-3" points="2308.35 1459.55 2318.85 1459.55 2322.75 1464.45 2312.24 1464.45 2308.35 1459.55"/><polygon class="cls-3" points="2300.56 1451.76 2311.07 1451.76 2314.96 1456.66 2304.46 1456.66 2300.56 1451.76"/><polygon class="cls-3" points="2292.78 1443.97 2303.28 1443.97 2307.17 1448.87 2296.67 1448.87 2292.78 1443.97"/><polygon class="cls-3" points="2148.85 1426.95 2152.58 1426.95 2156.47 1432.38 2152.74 1432.38 2148.85 1426.95"/><polygon class="cls-3" points="2141.06 1426.95 2144.79 1426.95 2148.69 1432.38 2144.95 1432.38 2141.06 1426.95"/><polygon class="cls-3" points="2133.27 1426.95 2137.01 1426.95 2140.9 1432.38 2137.16 1432.38 2133.27 1426.95"/><polygon class="cls-3" points="2125.48 1426.95 2129.22 1426.95 2133.11 1432.38 2129.38 1432.38 2125.48 1426.95"/><polygon class="cls-3" points="2117.7 1426.95 2121.43 1426.95 2125.32 1432.38 2121.59 1432.38 2117.7 1426.95"/><polygon class="cls-3" points="2016.24 1430.71 2115.55 1430.71 2119.44 1435.68 2012.35 1435.68 2016.24 1430.71"/><polyline class="cls-2" points="8.7 1019.25 8.7 1414.55 51.45 1466.78 270.29 1466.78 297.94 1435.68 997.67 1435.68"/><polyline class="cls-2" points="64.94 1455.1 266.4 1455.1 294.04 1424 366.33 1424"/><line class="cls-2" x1="642.22" y1="1424" x2="843" y2="1424"/><line class="cls-2" x1="12.46" y1="1370.43" x2="12.46" y2="1271.05"/><line class="cls-2" x1="0.78" y1="1405.48" x2="0.78" y2="1208.74"/><line class="cls-2" x1="12.46" y1="1265.3" x2="12.46" y2="1258.59"/><polygon class="cls-3" points="292.99 1459.55 282.49 1459.55 278.6 1464.45 289.1 1464.45 292.99 1459.55"/><polygon class="cls-3" points="300.78 1451.76 290.28 1451.76 286.38 1456.66 296.89 1456.66 300.78 1451.76"/><polygon class="cls-3" points="308.57 1443.97 298.06 1443.97 294.17 1448.87 304.67 1448.87 308.57 1443.97"/><polygon class="cls-3" points="452.5 1426.95 448.76 1426.95 444.87 1432.38 448.6 1432.38 452.5 1426.95"/><polygon class="cls-3" points="460.29 1426.95 456.55 1426.95 452.66 1432.38 456.39 1432.38 460.29 1426.95"/><polygon class="cls-3" points="468.07 1426.95 464.34 1426.95 460.44 1432.38 464.18 1432.38 468.07 1426.95"/><polygon class="cls-3" points="475.86 1426.95 472.13 1426.95 468.23 1432.38 471.97 1432.38 475.86 1426.95"/><polygon class="cls-3" points="483.65 1426.95 479.91 1426.95 476.02 1432.38 479.75 1432.38 483.65 1426.95"/><polygon class="cls-3" points="585.1 1430.71 485.8 1430.71 481.9 1435.68 588.99 1435.68 585.1 1430.71"/><polyline class="cls-2" points="8.7 450.81 8.7 55.52 51.45 3.29 270.29 3.29 297.94 34.39 638.32 34.39"/><polyline class="cls-2" points="64.94 14.97 266.4 14.97 294.04 46.07 366.33 46.07"/><line class="cls-2" x1="0.78" y1="64.59" x2="0.78" y2="261.32"/><polygon class="cls-3" points="292.99 10.52 282.49 10.52 278.6 5.62 289.1 5.62 292.99 10.52"/><polygon class="cls-3" points="300.78 18.31 290.28 18.31 286.38 13.41 296.89 13.41 300.78 18.31"/><polygon class="cls-3" points="308.57 26.09 298.06 26.09 294.17 21.2 304.67 21.2 308.57 26.09"/><polygon class="cls-3" points="452.5 43.12 448.76 43.12 444.87 37.69 448.6 37.69 452.5 43.12"/><polygon class="cls-3" points="460.29 43.12 456.55 43.12 452.66 37.69 456.39 37.69 460.29 43.12"/><polygon class="cls-3" points="468.07 43.12 464.34 43.12 460.44 37.69 464.18 37.69 468.07 43.12"/><polygon class="cls-3" points="475.86 43.12 472.13 43.12 468.23 37.69 471.97 37.69 475.86 43.12"/><polygon class="cls-3" points="483.65 43.12 479.91 43.12 476.02 37.69 479.75 37.69 483.65 43.12"/><polygon class="cls-3" points="585.1 39.36 485.8 39.36 481.9 34.39 588.99 34.39 585.1 39.36"/><polyline class="cls-2" points="2592.64 450.81 2592.64 55.52 2549.89 3.29 2331.05 3.29 2303.41 34.39 1963.02 34.39"/><polyline class="cls-2" points="2536.4 14.97 2334.95 14.97 2307.3 46.07 2235.01 46.07"/><line class="cls-2" x1="2600.56" y1="64.59" x2="2600.56" y2="261.32"/><polygon class="cls-3" points="2308.35 10.52 2318.85 10.52 2322.75 5.62 2312.24 5.62 2308.35 10.52"/><polygon class="cls-3" points="2300.56 18.31 2311.07 18.31 2314.96 13.41 2304.46 13.41 2300.56 18.31"/><polygon class="cls-3" points="2292.78 26.09 2303.28 26.09 2307.17 21.2 2296.67 21.2 2292.78 26.09"/><polygon class="cls-3" points="2148.85 43.12 2152.58 43.12 2156.47 37.69 2152.74 37.69 2148.85 43.12"/><polygon class="cls-3" points="2141.06 43.12 2144.79 43.12 2148.69 37.69 2144.95 37.69 2141.06 43.12"/><polygon class="cls-3" points="2133.27 43.12 2137.01 43.12 2140.9 37.69 2137.16 37.69 2133.27 43.12"/><polygon class="cls-3" points="2125.48 43.12 2129.22 43.12 2133.11 37.69 2129.38 37.69 2125.48 43.12"/><polygon class="cls-3" points="2117.7 43.12 2121.43 43.12 2125.32 37.69 2121.59 37.69 2117.7 43.12"/><polygon class="cls-3" points="2016.24 39.36 2115.55 39.36 2119.44 34.39 2012.35 34.39 2016.24 39.36"/></g></g></svg>