<svg xmlns="http://www.w3.org/2000/svg" viewBox="0 0 914.49 410.93"><defs><style>.cls-1{fill:none;stroke:#4eaeb2;stroke-miterlimit:10;stroke-width:1.43px;}.cls-2{fill:#4eaeb2;}</style></defs><title>资源 27</title><g id="图层_2" data-name="图层 2"><g id="图层_1-2" data-name="图层 1"><polyline class="cls-1" points="7.98 0 7.98 362.34 47.16 410.22 247.76 410.22 273.1 381.71 914.49 381.71"/><polyline class="cls-1" points="59.53 399.51 244.19 399.51 269.53 371 335.79 371"/><line class="cls-1" x1="588.68" y1="371" x2="772.72" y2="371"/><line class="cls-1" x1="11.42" y1="321.9" x2="11.42" y2="230.8"/><line class="cls-1" x1="0.71" y1="354.03" x2="0.71" y2="173.69"/><line class="cls-1" x1="11.42" y1="225.54" x2="11.42" y2="219.38"/><polygon class="cls-2" points="268.57 403.59 258.94 403.59 255.37 408.08 265 408.08 268.57 403.59"/><polygon class="cls-2" points="275.7 396.45 266.08 396.45 262.51 400.94 272.13 400.94 275.7 396.45"/><polygon class="cls-2" points="282.84 389.31 273.22 389.31 269.65 393.8 279.27 393.8 282.84 389.31"/><polygon class="cls-2" points="414.77 373.7 411.35 373.7 407.78 378.68 411.2 378.68 414.77 373.7"/><polygon class="cls-2" points="421.91 373.7 418.49 373.7 414.92 378.68 418.34 378.68 421.91 373.7"/><polygon class="cls-2" points="429.05 373.7 425.63 373.7 422.06 378.68 425.48 378.68 429.05 373.7"/><polygon class="cls-2" points="436.19 373.7 432.76 373.7 429.2 378.68 432.62 378.68 436.19 373.7"/><polygon class="cls-2" points="443.33 373.7 439.9 373.7 436.33 378.68 439.76 378.68 443.33 373.7"/><polygon class="cls-2" points="536.32 377.16 445.3 377.16 441.73 381.71 539.89 381.71 536.32 377.16"/></g></g></svg>