<svg xmlns="http://www.w3.org/2000/svg" viewBox="0 0 961.44 413.23"><defs><style>.cls-1{fill:#02ccbd;}.cls-2{fill:none;stroke:#4eaeb2;stroke-miterlimit:10;stroke-width:1.43px;}.cls-3{fill:#4eaeb2;}</style></defs><title>资源 25</title><g id="图层_2" data-name="图层 2"><g id="图层_1-2" data-name="图层 1"><polygon class="cls-1" points="954.46 27.95 605.11 27.95 954.46 22.36 954.46 27.95"/><polygon class="cls-1" points="954.46 27.95 948.87 27.95 961.44 0 954.46 27.95"/><polygon class="cls-1" points="954.46 34.94 605.11 34.94 954.46 40.52 954.46 34.94"/><polygon class="cls-1" points="954.46 34.94 948.87 34.94 961.44 62.88 954.46 34.94"/><polyline class="cls-2" points="7.98 413.23 7.98 50.89 47.16 3.01 247.76 3.01 273.1 31.52 585.11 31.52"/><polyline class="cls-2" points="59.53 13.72 244.19 13.72 269.53 42.23 335.79 42.23"/><line class="cls-2" x1="0.71" y1="59.2" x2="0.71" y2="239.54"/><polygon class="cls-3" points="268.57 9.64 258.94 9.64 255.37 5.15 265 5.15 268.57 9.64"/><polygon class="cls-3" points="275.7 16.78 266.08 16.78 262.51 12.29 272.13 12.29 275.7 16.78"/><polygon class="cls-3" points="282.84 23.92 273.22 23.92 269.65 19.43 279.27 19.43 282.84 23.92"/><polygon class="cls-3" points="414.77 39.53 411.35 39.53 407.78 34.55 411.2 34.55 414.77 39.53"/><polygon class="cls-3" points="421.91 39.53 418.49 39.53 414.92 34.55 418.34 34.55 421.91 39.53"/><polygon class="cls-3" points="429.05 39.53 425.63 39.53 422.06 34.55 425.48 34.55 429.05 39.53"/><polygon class="cls-3" points="436.19 39.53 432.76 39.53 429.2 34.55 432.62 34.55 436.19 39.53"/><polygon class="cls-3" points="443.33 39.53 439.9 39.53 436.33 34.55 439.76 34.55 443.33 39.53"/><polygon class="cls-3" points="536.32 36.08 445.3 36.08 441.73 31.52 539.89 31.52 536.32 36.08"/></g></g></svg>