<svg xmlns="http://www.w3.org/2000/svg" viewBox="0 0 961.44 413.23"><defs><style>.cls-1{fill:#02ccbd;}.cls-2{fill:none;stroke:#4eaeb2;stroke-miterlimit:10;stroke-width:1.43px;}.cls-3{fill:#4eaeb2;}</style></defs><title>资源 26</title><g id="图层_2" data-name="图层 2"><g id="图层_1-2" data-name="图层 1"><polygon class="cls-1" points="6.99 27.95 356.34 27.95 6.99 22.36 6.99 27.95"/><polygon class="cls-1" points="6.99 27.95 12.58 27.95 0 0 6.99 27.95"/><polygon class="cls-1" points="6.99 34.94 356.34 34.94 6.99 40.52 6.99 34.94"/><polygon class="cls-1" points="6.99 34.94 12.58 34.94 0 62.88 6.99 34.94"/><polyline class="cls-2" points="953.47 413.23 953.47 50.89 914.28 3.01 713.69 3.01 688.34 31.52 376.34 31.52"/><polyline class="cls-2" points="901.91 13.72 717.25 13.72 691.91 42.23 625.65 42.23"/><line class="cls-2" x1="960.73" y1="59.2" x2="960.73" y2="239.54"/><polygon class="cls-3" points="692.88 9.64 702.5 9.64 706.07 5.15 696.45 5.15 692.88 9.64"/><polygon class="cls-3" points="685.74 16.78 695.37 16.78 698.93 12.29 689.31 12.29 685.74 16.78"/><polygon class="cls-3" points="678.6 23.92 688.23 23.92 691.8 19.43 682.17 19.43 678.6 23.92"/><polygon class="cls-3" points="546.67 39.53 550.09 39.53 553.66 34.55 550.24 34.55 546.67 39.53"/><polygon class="cls-3" points="539.53 39.53 542.95 39.53 546.52 34.55 543.1 34.55 539.53 39.53"/><polygon class="cls-3" points="532.39 39.53 535.82 39.53 539.38 34.55 535.96 34.55 532.39 39.53"/><polygon class="cls-3" points="525.25 39.53 528.68 39.53 532.25 34.55 528.82 34.55 525.25 39.53"/><polygon class="cls-3" points="518.12 39.53 521.54 39.53 525.11 34.55 521.68 34.55 518.12 39.53"/><polygon class="cls-3" points="425.12 36.08 516.14 36.08 519.71 31.52 421.55 31.52 425.12 36.08"/></g></g></svg>