<svg xmlns="http://www.w3.org/2000/svg" viewBox="0 0 914.49 410.93"><defs><style>.cls-1{fill:none;stroke:#4eaeb2;stroke-miterlimit:10;stroke-width:1.43px;}.cls-2{fill:#4eaeb2;}</style></defs><title>资源 28</title><g id="图层_2" data-name="图层 2"><g id="图层_1-2" data-name="图层 1"><polyline class="cls-1" points="906.52 0 906.52 362.34 867.33 410.22 666.74 410.22 641.39 381.71 0 381.71"/><polyline class="cls-1" points="854.97 399.51 670.3 399.51 644.96 371 578.7 371"/><line class="cls-1" x1="325.81" y1="371" x2="141.77" y2="371"/><line class="cls-1" x1="903.07" y1="321.9" x2="903.07" y2="230.8"/><line class="cls-1" x1="913.78" y1="354.03" x2="913.78" y2="173.69"/><line class="cls-1" x1="903.07" y1="225.54" x2="903.07" y2="219.38"/><polygon class="cls-2" points="645.93 403.59 655.55 403.59 659.12 408.08 649.5 408.08 645.93 403.59"/><polygon class="cls-2" points="638.79 396.45 648.41 396.45 651.99 400.94 642.36 400.94 638.79 396.45"/><polygon class="cls-2" points="631.65 389.31 641.28 389.31 644.85 393.8 635.22 393.8 631.65 389.31"/><polygon class="cls-2" points="499.72 373.7 503.14 373.7 506.71 378.68 503.29 378.68 499.72 373.7"/><polygon class="cls-2" points="492.58 373.7 496 373.7 499.57 378.68 496.15 378.68 492.58 373.7"/><polygon class="cls-2" points="485.44 373.7 488.87 373.7 492.44 378.68 489.01 378.68 485.44 373.7"/><polygon class="cls-2" points="478.3 373.7 481.73 373.7 485.3 378.68 481.87 378.68 478.3 373.7"/><polygon class="cls-2" points="471.17 373.7 474.59 373.7 478.16 378.68 474.74 378.68 471.17 373.7"/><polygon class="cls-2" points="378.17 377.16 469.19 377.16 472.76 381.71 374.6 381.71 378.17 377.16"/></g></g></svg>